<?xml version="1.0" standalone="no"?>
<!DOCTYPE svg PUBLIC "-//W3C//DTD SVG 20010904//EN"
 "http://www.w3.org/TR/2001/REC-SVG-20010904/DTD/svg10.dtd">
<svg version="1.0" xmlns="http://www.w3.org/2000/svg"
 width="457.000000pt" height="130.000000pt" viewBox="0 0 457.000000 130.000000"
 preserveAspectRatio="xMidYMid meet">

<g transform="translate(0.000000,130.000000) scale(0.100000,-0.100000)"
fill="#000000" stroke="none">
<path d="M210 965 l0 -115 465 0 465 0 0 115 0 115 -465 0 -465 0 0 -115z"/>
<path d="M1230 755 c0 -23 4 -24 63 -27 l62 -3 3 -142 3 -143 29 0 30 0 0 145
0 145 65 0 c63 0 65 1 65 25 l0 25 -160 0 -160 0 0 -25z"/>
<path d="M1695 757 c-47 -26 -85 -92 -85 -148 0 -56 39 -119 90 -146 48 -25
137 -31 187 -12 40 15 91 67 104 107 25 76 -21 175 -98 207 -55 23 -150 19
-198 -8z m191 -52 c14 -9 32 -32 40 -52 53 -125 -131 -219 -227 -117 -32 34
-34 111 -4 144 45 51 134 62 191 25z"/>
<path d="M2090 610 l0 -173 104 5 c89 4 110 8 148 31 107 62 105 216 -2 276
-36 20 -62 25 -147 29 l-103 5 0 -173z m181 110 c54 -15 81 -49 81 -105 2 -81
-51 -123 -154 -124 l-48 -1 0 120 0 120 43 0 c23 0 58 -5 78 -10z"/>
<path d="M2573 759 c-66 -33 -100 -99 -88 -175 7 -52 53 -110 102 -130 49 -21
139 -18 190 7 61 30 97 92 91 159 -10 100 -83 160 -194 160 -40 0 -73 -7 -101
-21z m154 -40 c66 -25 98 -90 73 -150 -37 -89 -183 -104 -237 -23 -22 34 -21
95 1 130 31 46 104 66 163 43z"/>
<path d="M3110 610 l0 -170 130 0 130 0 0 25 0 25 -100 0 -100 0 0 145 0 145
-30 0 -30 0 0 -170z"/>
<path d="M3440 610 l0 -170 30 0 30 0 0 170 0 170 -30 0 -30 0 0 -170z"/>
<path d="M3664 766 c-87 -38 -86 -151 2 -175 20 -5 74 -7 120 -4 92 7 114 -2
114 -44 0 -51 -126 -70 -230 -33 l-55 19 -17 -22 c-17 -22 -17 -22 25 -41 61
-28 203 -34 262 -11 77 29 102 82 70 145 -21 41 -69 54 -174 46 -98 -8 -129 3
-116 43 13 42 94 53 193 27 49 -12 53 -12 63 6 5 10 8 22 5 27 -18 29 -206 41
-262 17z"/>
<path d="M4030 755 c0 -24 2 -25 65 -25 l65 0 0 -145 0 -145 30 0 29 0 3 143
3 142 63 3 c58 3 62 4 62 27 l0 25 -160 0 -160 0 0 -25z"/>
<path d="M210 610 l0 -110 465 0 465 0 0 110 0 110 -465 0 -465 0 0 -110z"/>
<path d="M210 255 l0 -115 465 0 465 0 0 115 0 115 -465 0 -465 0 0 -115z"/>
</g>
</svg>
