<?xml version="1.0" standalone="no"?>
<!DOCTYPE svg PUBLIC "-//W3C//DTD SVG 20010904//EN"
 "http://www.w3.org/TR/2001/REC-SVG-20010904/DTD/svg10.dtd">
<svg version="1.0" xmlns="http://www.w3.org/2000/svg"
 width="512.000000pt" height="512.000000pt" viewBox="0 0 512.000000 512.000000"
 preserveAspectRatio="xMidYMid meet">

<g transform="translate(0.000000,512.000000) scale(0.100000,-0.100000)"
fill="#000000" stroke="none">
<path d="M832 5060 c-176 -46 -307 -168 -364 -339 -22 -65 -22 -74 -29 -921
-7 -892 -10 -979 -59 -1395 -43 -362 -109 -725 -200 -1103 -51 -212 -58 -279
-39 -361 38 -166 177 -298 348 -331 35 -6 596 -10 1620 -10 1735 0 1639 -3
1781 66 104 51 213 161 263 264 72 147 202 732 271 1220 72 507 89 820 90
1642 1 683 1 687 -20 715 -49 66 -154 66 -194 0 -19 -31 -20 -55 -20 -612 0
-319 -5 -679 -10 -800 -29 -642 -108 -1199 -257 -1820 -64 -269 -107 -341
-242 -404 l-56 -26 -1585 -3 c-1107 -2 -1596 0 -1622 8 -77 22 -137 102 -138
183 0 21 22 131 49 245 130 546 199 998 242 1602 7 85 14 517 18 960 6 801 6
805 28 845 25 47 84 105 133 131 34 18 101 19 1920 19 l1885 0 40 -22 c47 -25
105 -84 131 -133 18 -34 19 -109 22 -2095 3 -2338 10 -2128 -82 -2220 -92 -93
89 -85 -1988 -85 -2021 0 -1867 5 -1908 -63 -25 -41 -25 -73 0 -114 41 -68
-113 -63 1907 -63 1573 0 1838 2 1898 15 205 43 357 195 400 400 22 105 22
4105 0 4210 -43 205 -195 357 -400 400 -60 13 -325 15 -1915 14 -1785 0 -1847
-1 -1918 -19z"/>
<path d="M1740 2700 c-19 -10 -51 -36 -71 -57 -39 -40 -236 -301 -269 -356
-36 -59 -19 -141 35 -165 40 -19 99 -15 128 8 15 12 81 95 148 185 71 98 128
165 138 165 25 0 89 -63 201 -198 161 -195 233 -243 372 -250 80 -4 92 -2 150
25 40 19 99 62 162 119 142 128 154 136 199 130 20 -3 55 -9 77 -12 24 -4 53
-1 71 6 57 24 80 116 42 169 -27 37 -103 72 -172 78 -121 11 -207 -30 -363
-175 -96 -90 -139 -116 -172 -108 -34 8 -102 72 -183 171 -184 223 -270 285
-392 285 -45 -1 -77 -7 -101 -20z"/>
<path d="M3383 2260 c-34 -21 -63 -66 -63 -100 0 -54 65 -120 118 -120 57 0
122 64 122 120 0 56 -65 120 -122 120 -13 0 -37 -9 -55 -20z"/>
</g>
</svg>
